<?xml version="1.0" standalone="no"?>
<!DOCTYPE svg PUBLIC "-//W3C//DTD SVG 20010904//EN"
 "http://www.w3.org/TR/2001/REC-SVG-20010904/DTD/svg10.dtd">
<svg version="1.0" xmlns="http://www.w3.org/2000/svg"
 width="155.000000pt" height="155.000000pt" viewBox="0 0 155.000000 155.000000"
 preserveAspectRatio="xMidYMid meet">
<metadata>
Created by potrace 1.11, written by Peter Selinger 2001-2013
</metadata>
<g transform="translate(0.000000,155.000000) scale(0.100000,-0.100000)"
fill="#000000" stroke="none">
<path d="M1004 1513 c-9 -21 -17 -42 -18 -48 -1 -5 -7 -19 -13 -30 -10 -17
-11 -14 -6 18 3 22 2 37 -4 37 -12 0 -24 -29 -49 -115 -21 -72 -34 -91 -27
-41 6 48 -18 48 -63 0 -52 -54 -66 -118 -66 -300 -1 -85 -5 -154 -10 -154 -5
0 -8 6 -7 13 1 6 1 52 0 101 -1 107 -16 106 -51 -5 -20 -61 -22 -84 -18 -193
5 -116 4 -123 -14 -118 -23 6 -48 -15 -48 -40 0 -11 11 -43 25 -71 18 -34 21
-46 10 -37 -25 21 -55 86 -55 120 0 24 7 35 30 48 43 25 43 37 2 68 -20 15
-89 79 -152 143 -110 111 -156 170 -213 273 -40 72 -79 128 -89 128 -14 0 0
-75 28 -148 27 -73 28 -76 14 -67 -15 9 -12 -22 6 -58 18 -36 83 -127 99 -140
6 -6 3 -7 -7 -4 -24 8 -27 0 -16 -46 16 -73 39 -106 104 -155 48 -35 60 -49
49 -55 -21 -11 -19 -64 4 -96 21 -29 124 -102 216 -152 17 -9 28 -20 25 -25
-3 -5 -90 -48 -195 -95 -246 -111 -284 -129 -291 -140 -10 -17 48 -9 106 16
65 27 70 29 70 17 0 -4 -34 -25 -76 -47 -86 -46 -116 -72 -95 -84 17 -11 84 3
144 28 68 29 76 26 37 -14 -18 -19 -31 -37 -28 -40 13 -13 61 10 101 49 24 22
74 68 112 101 39 33 72 63 75 66 17 19 123 99 127 95 2 -2 -16 -23 -42 -47
-37 -34 -43 -45 -33 -54 18 -17 100 -36 183 -42 79 -5 140 13 248 73 71 41
100 71 118 126 14 43 43 71 95 90 19 6 34 14 33 18 0 3 -27 18 -61 35 l-60 29
-40 -23 c-56 -32 -137 -39 -188 -16 -70 31 -129 151 -124 251 2 64 12 89 73
188 l36 60 -2 140 c-2 105 2 157 15 210 33 134 15 253 -24 159z"/>
</g>
</svg>
