<?xml version="1.0" encoding="UTF-8" standalone="no"?>
<svg width="16px" height="16px" viewBox="0 0 16 16" version="1.1" xmlns="http://www.w3.org/2000/svg" xmlns:xlink="http://www.w3.org/1999/xlink">
    <!-- Generator: Sketch 39.1 (31720) - http://www.bohemiancoding.com/sketch -->
    <title>placeholder</title>
    <desc>Created with Sketch.</desc>
    <defs></defs>
    <g id="Page-1" stroke="none" stroke-width="1" fill="none" fill-rule="evenodd">
        <g id="Desktop-Copy-3" transform="translate(-82.000000, -1227.000000)" fill="#3D3D3D">
            <g id="Group-8" transform="translate(82.000000, 1226.000000)">
                <g id="placeholder" transform="translate(0.000000, 1.000000)">
                    <path d="M8.34941935,6.70967742 C9.34554839,6.70967742 10.155871,5.89909677 10.155871,4.90322581 C10.155871,3.90735484 9.34554839,3.09677419 8.34941935,3.09677419 C7.35329032,3.09677419 6.54296774,3.90735484 6.54296774,4.90322581 C6.54296774,5.89909677 7.35329032,6.70967742 8.34941935,6.70967742 L8.34941935,6.70967742 Z M8.34941935,3.61290323 C9.06090323,3.61290323 9.63974194,4.19174194 9.63974194,4.90322581 C9.63974194,5.61470968 9.06090323,6.19354839 8.34941935,6.19354839 C7.63793548,6.19354839 7.05909677,5.61470968 7.05909677,4.90322581 C7.05909677,4.19174194 7.63793548,3.61290323 8.34941935,3.61290323 L8.34941935,3.61290323 Z" id="Shape"></path>
                    <path d="M8.30374194,14.1308387 L12.2627097,8.41290323 C13.7476129,6.43303226 13.5326452,3.17935484 11.8030968,1.44980645 C10.8683871,0.51483871 9.62554839,0 8.30374194,0 C6.98193548,0 5.73909677,0.51483871 4.8043871,1.44954839 C3.07458065,3.17909677 2.8596129,6.43329032 4.33883871,8.40490323 L8.30374194,14.1308387 L8.30374194,14.1308387 Z M5.16929032,1.81445161 C6.00645161,0.977290323 7.11974194,0.516129032 8.30374194,0.516129032 C9.48774194,0.516129032 10.6007742,0.977290323 11.4381935,1.81445161 C12.9992258,3.37548387 13.1914839,6.31432258 11.844129,8.11096774 L8.30374194,13.224 L4.75767742,8.10322581 C3.41574194,6.31432258 3.608,3.37548387 5.16929032,1.81445161 L5.16929032,1.81445161 Z" id="Shape"></path>
                    <path d="M0.516129032,14.8609032 L0.333677419,15.0433548 C0.232774194,15.1442581 0.232774194,15.3073548 0.333677419,15.4082581 C0.384,15.4585806 0.450064516,15.483871 0.516129032,15.483871 C0.582193548,15.483871 0.648258065,15.4585806 0.698580645,15.4082581 L0.881032258,15.2258065 C0.981935484,15.1249032 0.981935484,14.9618065 0.881032258,14.8609032 C0.780129032,14.76 0.617032258,14.76 0.516129032,14.8609032 L0.516129032,14.8609032 Z" id="Shape"></path>
                    <path d="M2.48154839,13.4193548 C2.33909677,13.4193548 2.22348387,13.5347097 2.22348387,13.6774194 C2.22348387,13.820129 2.33909677,13.9354839 2.48154839,13.9354839 L2.95122581,13.9354839 C3.09367742,13.9354839 3.20929032,13.820129 3.20929032,13.6774194 C3.20929032,13.5347097 3.09367742,13.4193548 2.95122581,13.4193548 L2.48154839,13.4193548 L2.48154839,13.4193548 Z" id="Shape"></path>
                    <path d="M1.87741935,13.8645161 C1.77651613,13.7636129 1.61341935,13.7636129 1.51251613,13.8645161 L1.1803871,14.1966452 C1.07948387,14.2975484 1.07948387,14.4606452 1.1803871,14.5615484 C1.23070968,14.611871 1.29677419,14.6371613 1.36283871,14.6371613 C1.42890323,14.6371613 1.49496774,14.611871 1.54529032,14.5615484 L1.87741935,14.2294194 C1.97832258,14.1285161 1.97832258,13.9651613 1.87741935,13.8645161 L1.87741935,13.8645161 Z" id="Shape"></path>
                    <path d="M5.3003871,13.4193548 C5.15793548,13.4193548 5.04232258,13.5347097 5.04232258,13.6774194 C5.04232258,13.820129 5.15793548,13.9354839 5.3003871,13.9354839 L5.77006452,13.9354839 C5.91251613,13.9354839 6.02812903,13.820129 6.02812903,13.6774194 C6.02812903,13.5347097 5.91251613,13.4193548 5.77006452,13.4193548 L5.3003871,13.4193548 L5.3003871,13.4193548 Z" id="Shape"></path>
                    <path d="M3.89083871,13.4193548 C3.7483871,13.4193548 3.63277419,13.5347097 3.63277419,13.6774194 C3.63277419,13.820129 3.7483871,13.9354839 3.89083871,13.9354839 L4.36077419,13.9354839 C4.50322581,13.9354839 4.61883871,13.820129 4.61883871,13.6774194 C4.61883871,13.5347097 4.50322581,13.4193548 4.36077419,13.4193548 L3.89083871,13.4193548 L3.89083871,13.4193548 Z" id="Shape"></path>
                    <path d="M6.70967742,13.4193548 C6.56722581,13.4193548 6.4516129,13.5347097 6.4516129,13.6774194 C6.4516129,13.820129 6.56722581,13.9354839 6.70967742,13.9354839 L6.96774194,13.9354839 C7.11019355,13.9354839 7.22580645,13.820129 7.22580645,13.6774194 C7.22580645,13.5347097 7.11019355,13.4193548 6.96774194,13.4193548 L6.70967742,13.4193548 L6.70967742,13.4193548 Z" id="Shape"></path>
                    <path d="M0.516129032,13.8730323 C0.582193548,13.8730323 0.648258065,13.8477419 0.698580645,13.7974194 L1.69883871,12.7971613 C1.72335484,12.7726452 1.75019355,12.7507097 1.78890323,12.7269677 L1.83870968,12.700129 C1.84774194,12.6947097 1.85651613,12.6892903 1.86606452,12.6851613 L1.96258065,12.6554839 C1.9963871,12.6490323 2.03045161,12.6451613 2.06451613,12.6451613 L5.93548387,12.6451613 C6.07793548,12.6451613 6.19354839,12.5298065 6.19354839,12.3870968 C6.19354839,12.2443871 6.07793548,12.1290323 5.93548387,12.1290323 L2.06451613,12.1290323 C1.99845161,12.1290323 1.93058065,12.1357419 1.8603871,12.1494194 C1.8356129,12.1548387 1.81187097,12.1620645 1.7883871,12.1698065 L1.75458065,12.179871 C1.72567742,12.1876129 1.69677419,12.1963871 1.67045161,12.2072258 C1.63974194,12.219871 1.61083871,12.2353548 1.58219355,12.251871 L1.55767742,12.2652903 C1.53574194,12.2763871 1.51406452,12.2877419 1.49135484,12.3029677 C1.43432258,12.3409032 1.38141935,12.3845161 1.33367742,12.4322581 L0.333419355,13.4325161 C0.232516129,13.5334194 0.232516129,13.6965161 0.333419355,13.7974194 C0.384,13.8477419 0.450064516,13.8730323 0.516129032,13.8730323 L0.516129032,13.8730323 Z" id="Shape"></path>
                    <path d="M15.3014194,12.5695484 C15.3674839,12.5695484 15.4335484,12.5442581 15.483871,12.4939355 L15.6663226,12.3114839 C15.7672258,12.2105806 15.7672258,12.0474839 15.6663226,11.9465806 C15.5654194,11.8456774 15.4023226,11.8456774 15.3014194,11.9465806 L15.1189677,12.1290323 C15.0180645,12.2299355 15.0180645,12.3930323 15.1189677,12.4939355 C15.1692903,12.5442581 15.2353548,12.5695484 15.3014194,12.5695484 L15.3014194,12.5695484 Z" id="Shape"></path>
                    <path d="M14.3396129,12.9083871 L13.9499355,13.2980645 C13.8490323,13.3989677 13.8490323,13.5620645 13.9499355,13.6629677 C14.0002581,13.7132903 14.0663226,13.7385806 14.1323871,13.7385806 C14.1984516,13.7385806 14.2645161,13.7132903 14.3148387,13.6629677 L14.7045161,13.2732903 C14.8054194,13.1723871 14.8054194,13.0092903 14.7045161,12.9083871 C14.6036129,12.8074839 14.4405161,12.8074839 14.3396129,12.9083871 L14.3396129,12.9083871 Z" id="Shape"></path>
                    <path d="M12.5612903,13.4193548 C12.4185806,13.4193548 12.3032258,13.5347097 12.3032258,13.6774194 C12.3032258,13.820129 12.4185806,13.9354839 12.5612903,13.9354839 L13.1122581,13.9354839 C13.2549677,13.9354839 13.3703226,13.820129 13.3703226,13.6774194 C13.3703226,13.5347097 13.2549677,13.4193548 13.1122581,13.4193548 L12.5612903,13.4193548 L12.5612903,13.4193548 Z" id="Shape"></path>
                    <path d="M10.9083871,13.4193548 C10.7659355,13.4193548 10.6503226,13.5347097 10.6503226,13.6774194 C10.6503226,13.820129 10.7659355,13.9354839 10.9083871,13.9354839 L11.4593548,13.9354839 C11.6018065,13.9354839 11.7174194,13.820129 11.7174194,13.6774194 C11.7174194,13.5347097 11.6018065,13.4193548 11.4593548,13.4193548 L10.9083871,13.4193548 L10.9083871,13.4193548 Z" id="Shape"></path>
                    <path d="M9.5483871,13.4193548 C9.40593548,13.4193548 9.29032258,13.5347097 9.29032258,13.6774194 C9.29032258,13.820129 9.40593548,13.9354839 9.5483871,13.9354839 L9.80645161,13.9354839 C9.94890323,13.9354839 10.0645161,13.820129 10.0645161,13.6774194 C10.0645161,13.5347097 9.94890323,13.4193548 9.80645161,13.4193548 L9.5483871,13.4193548 L9.5483871,13.4193548 Z" id="Shape"></path>
                    <path d="M15.3014194,13.5574194 L14.3011613,14.5576774 C14.2769032,14.5819355 14.2503226,14.6036129 14.2116129,14.6276129 L14.1630968,14.6539355 C14.1527742,14.6596129 14.1427097,14.6660645 14.1323871,14.6701935 C14.1243871,14.6735484 14.115871,14.6753548 14.1073548,14.6776774 L14.0356129,14.6993548 C14.0028387,14.7060645 13.9692903,14.7096774 13.9354839,14.7096774 L2.29419355,14.7096774 L1.90270968,15.0247742 C1.79174194,15.1143226 1.77393548,15.2769032 1.86348387,15.3876129 C1.91432258,15.4508387 1.98916129,15.483871 2.06451613,15.483871 C2.12129032,15.483871 2.17858065,15.4652903 2.22606452,15.4268387 L2.47612903,15.2258065 L13.9354839,15.2258065 C14.0025806,15.2258065 14.0707097,15.2190968 14.1365161,15.2056774 C14.1628387,15.2005161 14.1876129,15.1930323 14.2126452,15.1847742 L14.2449032,15.1752258 C14.2738065,15.1672258 14.3024516,15.1587097 14.3313548,15.1465806 C14.3615484,15.1339355 14.3899355,15.1187097 14.4183226,15.1024516 L14.443871,15.0885161 C14.4660645,15.0774194 14.4877419,15.0658065 14.5076129,15.0523871 C14.5646452,15.0144516 14.6180645,14.9708387 14.6660645,14.9225806 L15.6663226,13.9223226 C15.7672258,13.8214194 15.7672258,13.6583226 15.6663226,13.5574194 C15.5654194,13.4565161 15.4023226,13.4567742 15.3014194,13.5574194 L15.3014194,13.5574194 Z" id="Shape"></path>
                    <path d="M10.3225806,12.3870968 C10.3225806,12.5298065 10.4381935,12.6451613 10.5806452,12.6451613 L13.7218065,12.6451613 L14.5716129,11.7953548 C14.6725161,11.6944516 14.6725161,11.5313548 14.5716129,11.4304516 C14.4707097,11.3295484 14.3076129,11.3295484 14.2067097,11.4304516 L13.508129,12.1290323 L10.5806452,12.1290323 C10.4381935,12.1290323 10.3225806,12.2443871 10.3225806,12.3870968 L10.3225806,12.3870968 Z" id="Shape"></path>
                </g>
            </g>
        </g>
    </g>
</svg>